<svg width="75" height="70" viewBox="0 0 75 70" fill="none" xmlns="http://www.w3.org/2000/svg">
<path d="M57.0279 0.00012207H17.6036C7.99766 0.00012207 0.21051 7.34545 0.21051 16.4064V53.5939C0.21051 62.6548 7.99766 70.0001 17.6036 70.0001H57.0279C66.6339 70.0001 74.421 62.6548 74.421 53.5939V16.4064C74.421 7.34545 66.6339 0.00012207 57.0279 0.00012207Z" fill="#092E20"/>
<path d="M32.8773 13.9454H41.1724V50.1622C36.9172 50.9243 33.7931 51.2292 30.4 51.2292C20.2732 51.2289 14.9946 46.9108 14.9946 38.6289C14.9946 30.6519 20.5967 25.47 29.2686 25.47C30.6151 25.47 31.6384 25.5713 32.8773 25.8761V13.9454ZM32.8773 32.1758C31.908 31.8715 31.1 31.7697 30.0768 31.7697C25.8753 31.7697 23.4513 34.2085 23.4513 38.4761C23.4513 42.6427 25.7676 44.9289 30.0228 44.9289C30.938 44.9289 31.6926 44.8781 32.8773 44.726V32.1758Z" fill="white"/>
<path d="M54.3686 26.0284V44.1663C54.3686 50.416 53.8839 53.4134 52.4295 56.0047C51.0827 58.4947 49.3051 60.0694 45.6424 61.797L37.9399 58.3418C41.6026 56.7162 43.3802 55.2941 44.511 53.1085C45.6964 50.8731 46.0738 48.2818 46.0738 41.4737V26.0284H54.3686ZM46.0738 13.9869H54.3686V22.0146H46.0738V13.9869Z" fill="white"/>
</svg>
