<svg width="75" height="70" viewBox="0 0 75 70" fill="none" xmlns="http://www.w3.org/2000/svg">
<path d="M56.9076 0H17.4833C7.87736 0 0.09021 7.34533 0.09021 16.4062V53.5938C0.09021 62.6547 7.87736 70 17.4833 70H56.9076C66.5136 70 74.3007 62.6547 74.3007 53.5938V16.4062C74.3007 7.34533 66.5136 0 56.9076 0Z" fill="#242938"/>
<path d="M66.1839 50.0219C65.3401 50.3235 64.4084 50.3227 63.5648 50.0203C62.7216 49.7176 62.0247 49.134 61.6064 48.3799C58.9791 44.6702 56.078 41.1278 53.2896 37.5094L52.0805 35.9891C48.7601 40.1853 45.4398 44.2141 42.4096 48.3952C42.0148 49.116 41.3559 49.6768 40.5552 49.9732C39.7546 50.2699 38.8669 50.2817 38.0579 50.0069L50.5171 34.2407L38.9281 19.9948C39.7624 19.7107 40.6749 19.7068 41.5118 19.9837C42.3487 20.2607 43.0587 20.8016 43.5219 21.5152C46.2135 25.2248 49.1955 28.7673 52.1611 32.5227C55.1431 28.7977 58.0927 25.24 60.8489 21.5608C61.2458 20.8517 61.9052 20.305 62.7018 20.0247C63.4982 19.7443 64.3762 19.7499 65.1685 20.0404L60.6715 25.6657C58.6568 28.1742 56.6743 30.6981 54.579 33.1459C54.41 33.2886 54.2749 33.4631 54.1824 33.6583C54.0899 33.8535 54.0421 34.0649 54.0421 34.2787C54.0421 34.4923 54.0899 34.7036 54.1824 34.8989C54.2749 35.0941 54.41 35.2686 54.579 35.4113C58.4313 40.2309 62.2511 45.0656 66.1839 50.0219Z" fill="white"/>
<path d="M8.20697 34.043C8.54544 32.5227 8.755 30.8654 9.22241 29.3147C12.0108 19.9645 23.3742 16.0723 31.1914 21.8649C35.7689 25.2553 36.9134 30.0598 36.6879 35.4722H10.8987C10.4796 45.1418 17.8778 50.98 27.3392 48C28.874 47.4822 30.2478 46.6121 31.3369 45.468C32.426 44.324 33.1956 42.942 33.5768 41.4471C34.0766 39.9268 34.8825 39.6684 36.4136 40.1092C36.1614 41.9601 35.4677 43.7331 34.3844 45.2947C33.3014 46.8563 31.8569 48.1657 30.16 49.125C27.356 50.5714 24.139 51.1443 20.9691 50.762C17.7991 50.3798 14.8385 49.0618 12.5105 46.9965C10.2075 44.5539 8.81495 41.4679 8.54544 38.2088C8.54544 37.692 8.33591 37.1749 8.22309 36.6885C8.21233 35.7864 8.20697 34.9046 8.20697 34.043ZM10.9309 33.3892H34.254C34.1088 26.3804 29.4184 21.4088 23.1646 21.3632C16.2016 21.272 11.2211 26.1372 10.9148 33.3588L10.9309 33.3892Z" fill="white"/>
</svg>
