<svg width="66" height="70" viewBox="0 0 66 70" fill="none" xmlns="http://www.w3.org/2000/svg">
<path d="M34.4683 0.451314C33.9365 0.163505 33.3343 0.012085 32.7215 0.012085C32.1086 0.012085 31.5064 0.163505 30.9747 0.451314L2.13456 16.2752C1.03757 16.8614 0.421051 17.9677 0.421051 19.1408V50.853C0.421051 52.025 1.10587 53.1319 2.1334 53.7187L30.9735 69.542C31.5053 69.8299 32.1076 69.9813 32.7206 69.9813C33.3336 69.9813 33.9359 69.8299 34.4677 69.542L63.3078 53.7181C64.4042 53.1319 65.0202 52.025 65.0202 50.8525V19.1408C65.0202 17.9683 64.3353 16.862 63.3078 16.2752L34.4683 0.451314Z" fill="url(#paint0_linear_44_470)"/>
<path d="M63.3773 16.2751L34.4005 0.451246C34.1159 0.314627 33.8174 0.205606 33.5096 0.125854L1.0387 52.9365C1.30726 53.2485 1.63198 53.5132 1.99791 53.7186L30.9752 69.5419C31.7973 69.9974 32.7559 70.1281 33.6468 69.8673L64.131 16.8613C63.9308 16.6137 63.6729 16.4131 63.3773 16.2751Z" fill="url(#paint1_linear_44_470)"/>
<path d="M63.3779 53.717C64.1999 53.2615 64.8164 52.48 65.0902 51.6334L33.373 0.0592041C32.551 -0.0709523 31.6601 -0.00587412 30.907 0.45022L2.13516 16.209L33.167 69.997C33.578 69.9313 34.0584 69.8012 34.4694 69.6059L63.3779 53.717Z" fill="url(#paint2_linear_44_470)"/>
<defs>
<linearGradient id="paint0_linear_44_470" x1="44.4661" y1="12.2351" x2="20.4547" y2="63.7635" gradientUnits="userSpaceOnUse">
<stop stop-color="#3F873F"/>
<stop offset="0.33" stop-color="#3F8B3D"/>
<stop offset="0.637" stop-color="#3E9638"/>
<stop offset="0.934" stop-color="#3DA92E"/>
<stop offset="1" stop-color="#3DAE2B"/>
</linearGradient>
<linearGradient id="paint1_linear_44_470" x1="28.3393" y1="38.7002" x2="98.8501" y2="-16.1074" gradientUnits="userSpaceOnUse">
<stop offset="0.138" stop-color="#3F873F"/>
<stop offset="0.402" stop-color="#52A044"/>
<stop offset="0.713" stop-color="#64B749"/>
<stop offset="0.908" stop-color="#6ABF4B"/>
</linearGradient>
<linearGradient id="paint2_linear_44_470" x1="-0.634413" y1="34.9862" x2="66.0998" y2="34.9862" gradientUnits="userSpaceOnUse">
<stop offset="0.092" stop-color="#6ABF4B"/>
<stop offset="0.287" stop-color="#64B749"/>
<stop offset="0.598" stop-color="#52A044"/>
<stop offset="0.862" stop-color="#3F873F"/>
</linearGradient>
</defs>
</svg>
