<svg width="75" height="70" viewBox="0 0 75 70" fill="none" xmlns="http://www.w3.org/2000/svg">
<path d="M36.663 0.000782019C33.6026 0.0143077 30.6813 0.257093 28.1095 0.6818C20.5346 1.93022 19.1603 4.54338 19.1603 9.36326V15.7278H37.0595V17.8493H12.4422C7.2405 17.8493 2.68543 20.7661 1.26033 26.317C-0.383672 32.6775 -0.456159 36.6473 1.26033 43.289C2.53248 48.2333 5.57113 51.7554 10.7735 51.7554H16.9284V44.1256C16.9284 38.6132 22.0394 33.7514 28.1102 33.7514H45.9891C50.9661 33.7514 54.9384 29.9277 54.9384 25.2654V9.36393C54.9384 4.83756 50.8458 1.43789 45.9891 0.682476C42.9128 0.20502 39.7226 -0.0120674 36.663 0.000782019ZM26.983 5.11957C28.8315 5.11957 30.3421 6.55127 30.3421 8.31231C30.3421 10.0659 28.8322 11.4841 26.983 11.4841C25.1274 11.4841 23.6247 10.0659 23.6247 8.31231C23.624 6.55127 25.1274 5.11957 26.983 5.11957Z" fill="url(#paint0_linear_43_467)"/>
<path d="M57.1702 17.8491V25.2652C57.1702 31.0136 51.9454 35.8524 45.9884 35.8524H28.1095C23.2123 35.8524 19.1602 39.7634 19.1602 44.3391V60.2419C19.1602 64.7669 23.3775 67.4295 28.1095 68.7273C33.7751 70.2807 39.2087 70.562 45.9884 68.7273C50.4942 67.5093 54.9376 65.0598 54.9376 60.2419V53.8767H37.0594V51.7546H63.8883C69.09 51.7546 71.0297 48.3698 72.839 43.2882C74.7077 38.0571 74.6272 33.0262 72.839 26.3161C71.5531 21.4841 69.0979 17.8484 63.8883 17.8484L57.1702 17.8491ZM47.1141 58.1197C48.9705 58.1197 50.4732 59.5379 50.4732 61.2929C50.4732 63.0526 48.9698 64.4842 47.1141 64.4842C45.2657 64.4842 43.7558 63.0526 43.7558 61.2929C43.7558 59.5379 45.2657 58.1197 47.1141 58.1197Z" fill="url(#paint1_linear_43_467)"/>
<defs>
<linearGradient id="paint0_linear_43_467" x1="-1.79436" y1="1.99084" x2="37.055" y2="37.5015" gradientUnits="userSpaceOnUse">
<stop stop-color="#5A9FD4"/>
<stop offset="1" stop-color="#306998"/>
</linearGradient>
<linearGradient id="paint1_linear_43_467" x1="55.0223" y1="55.2559" x2="41.5468" y2="35.0011" gradientUnits="userSpaceOnUse">
<stop stop-color="#FFD43B"/>
<stop offset="1" stop-color="#FFE873"/>
</linearGradient>
</defs>
</svg>
